# xmcd
#
# Track frame offsets: 
#        150
#        16262
#        33172
#        49952
#        65265
#        87223
#        100773
#        116969
#        131620
#        149317
#
# Disc length: 2244 seconds
#
# Revision: 0
# Processed by: cddbd v1.5.2PL0 Copyright (c) Steve Scherf et al.
# Submitted via: ExactAudioCopy v1.0b4
#
DISCID=8308c20a
DTITLE=Cookies 'N' Beans - Go tell the world CD2 - Demo
DYEAR=2012
DGENRE=Country
TTITLE0=Go tell the world
TTITLE1=Fire
TTITLE2=Clouds over Sthlm
TTITLE3=Tomorrow's such a long time away
TTITLE4=Is it OK to cry now
TTITLE5=Don't think about tomorrow
TTITLE6=Every single flower
TTITLE7=Row row
TTITLE8=Got no heart
TTITLE9=The first step (on a long way down)
EXTD=
EXTT0=
EXTT1=
EXTT2=
EXTT3=
EXTT4=
EXTT5=
EXTT6=
EXTT7=
EXTT8=
EXTT9=
PLAYORDER=
